<svg id="Livello_1" data-name="Livello 1" xmlns="http://www.w3.org/2000/svg" viewBox="0 0 403.5 390.3"><defs><style>.cls-1,.cls-2,.cls-4,.cls-6{fill:none;}.cls-1,.cls-4,.cls-5,.cls-6{stroke:#1d1d1b;}.cls-1,.cls-4{stroke-miterlimit:10;}.cls-1{stroke-width:10px;}.cls-3,.cls-5{fill:#1d1d1b;}.cls-5{stroke-width:4px;}.cls-6{stroke-width:11px;}</style></defs><title>loghi_settori_</title><line class="cls-1" x1="183.68" y1="51.02" x2="183.68" y2="56.89"/><path class="cls-1" d="M227.31,342.39a53.59,53.59,0,0,1-32.92-75.93c12.76-24.87,43.09-34.63,68.74-23.51,12.83,5.56,26.77,16.42,26.77,37.35" transform="translate(-106.22 -229.28)"/><path class="cls-1" d="M289.9,529.58v46.59a37.14,37.14,0,0,1-28.55,36.32,88.16,88.16,0,0,1-20.27,2.09,53.69,53.69,0,0,1-53.32-48.31l.74,0" transform="translate(-106.22 -229.28)"/><path class="cls-1" d="M144.57,482.08c-7.35,12.42-10.09,19.59-9.64,30.64,1.2,29.31,23.59,53.15,52.83,53.55-.16-1.73-.26-3.49-.26-5.26A53.58,53.58,0,0,1,228,509.06" transform="translate(-106.22 -229.28)"/><path class="cls-1" d="M228,509.06A53.58,53.58,0,0,0,187.5,561c0,1.77.1,3.53.26,5.26l.74,0" transform="translate(-106.22 -229.28)"/><path class="cls-1" d="M289.9,318.57V288.25a54,54,0,0,1,52.24-53.92l1.33,0a51.78,51.78,0,0,1,34.43,12.54" transform="translate(-106.22 -229.28)"/><path class="cls-1" d="M165,364.08a63.06,63.06,0,0,0-1.1,124.57" transform="translate(-106.22 -229.28)"/><polygon class="cls-2" points="128.02 116.03 128.02 116.03 128.01 116.04 128.02 116.03"/><path class="cls-1" d="M147.1,369.54c-7.64-11.11-10.61-19.65-10.61-33.75a49,49,0,0,1,49-49h3.16" transform="translate(-106.22 -229.28)"/><path class="cls-1" d="M289.9,529.67V560a54,54,0,0,0,52.24,53.93l1.33,0a51.72,51.72,0,0,0,34.43-12.53" transform="translate(-106.22 -229.28)"/><line class="cls-1" x1="183.68" y1="113.11" x2="183.68" y2="278.57"/><path class="cls-3" d="M228.68,337.58h0l-.46-.12-2.44,9.65.15.09c0-.06,5.81,2.57,7.18-2.7,1.19-4.62-3.07-6.45-4.17-6.84" transform="translate(-106.22 -229.28)"/><path class="cls-3" d="M164.7,359.08h0l-.48.07,1.31,9.91.15,0c.37-.13,6.29-.21,5.69-5.17-.57-4.74-5.24-4.85-6.41-4.8" transform="translate(-106.22 -229.28)"/><path class="cls-3" d="M162.89,493.56c0-.05,6.09,1.83,6.78-3.57.6-4.74-3.86-6-5-6.26" transform="translate(-106.22 -229.28)"/><path class="cls-3" d="M228.94,514c0-.05,6.3-.82,4.73-6-1.38-4.57-6-3.91-7.12-3.67" transform="translate(-106.22 -229.28)"/><path class="cls-3" d="M374.68,250.65s4.42,4.57,7.66.2c2.84-3.84-.42-7.14-1.3-7.91" transform="translate(-106.22 -229.28)"/><path class="cls-3" d="M294.9,529.81c-.06,0,.73-5.94-4.84-5.94-5.26,0-5.14,5-5.16,6.13" transform="translate(-106.22 -229.28)"/><path class="cls-3" d="M294.89,507.85v.31c-.08,1.16-.21,6.13-5.46,5.87-5.56-.28-4.48-6.18-4.53-6.18" transform="translate(-106.22 -229.28)"/><path class="cls-3" d="M294.9,318.57v.35c-.07,1.16-.17,6.13-5.42,5.87-5.57-.28-4.51-6.29-4.57-6.29" transform="translate(-106.22 -229.28)"/><path class="cls-3" d="M294.89,343c-.05,0,.74-5.94-4.84-5.94-5.25,0-5.13,5-5.15,6.13" transform="translate(-106.22 -229.28)"/><path class="cls-1" d="M236,483.67a55.44,55.44,0,0,0,.19-110.8" transform="translate(-106.22 -229.28)"/><path class="cls-1" d="M180.34,375.08a43.44,43.44,0,0,0,41.87,55.05" transform="translate(-106.22 -229.28)"/><path class="cls-1" d="M224.88,430.13a43.46,43.46,0,0,0-42.14,54.05" transform="translate(-106.22 -229.28)"/><path class="cls-4" d="M224.88,430.13" transform="translate(-106.22 -229.28)"/><path class="cls-3" d="M175.64,373.33h0l-.14.46,9.58,2.87,0-.15c0-.38,2.39-5.82-2.38-7.31-4.56-1.42-6.57,2.8-7,3.88" transform="translate(-106.22 -229.28)"/><path class="cls-3" d="M187.65,483.26h0l-.06-.3-9.77,2,0,.31c.16.36.82,5.86,5.76,5.16,5.12-.72,4.38-5.35,4.08-6.91" transform="translate(-106.22 -229.28)"/><path class="cls-3" d="M235.81,488.68h0l.48,0-.26-10h-.15c-.38.09-6.28-.45-6.21,4.54.07,4.78,4.71,5.38,5.87,5.45" transform="translate(-106.22 -229.28)"/><path class="cls-3" d="M236.14,377.87h.48l-.24-10h-.17c-.38,0-6.27-.45-6.2,4.54.07,4.77,4.7,5.38,5.87,5.45" transform="translate(-106.22 -229.28)"/><path class="cls-5" d="M335.27,337.57,335,311.76q-.09-4.54-.93-6.06c-.57-1-1.68-1.51-3.34-1.51a23.29,23.29,0,0,0-2.58.22,21.5,21.5,0,0,1-2.58.23c-2.32,0-3.47-1-3.47-3.12s1.09-3.11,3.29-3.11c.71,0,1.82.07,3.34.22s2.68.22,3.51.22c1.9,0,3.47-.06,4.72-.18,1.84-.17,3-.26,3.38-.26,1.31,0,2.11.38,2.4,1.15a7.46,7.46,0,0,1,.36,2.76c0,.18,0,.89-.09,2.14q-.45,9.53-.44,17.26v10.06q0,2.76.09,7.39.16,5.61.17,7.39.09,6.13,4.1,6.14a28.72,28.72,0,0,0,2.94-.23c1.3-.14,2.28-.22,2.93-.22q4.27,0,4.27,3.12t-3.91,3.11a21.35,21.35,0,0,1-2.85-.18,95.64,95.64,0,0,0-11.39-1,75.56,75.56,0,0,0-9.61.75,42.37,42.37,0,0,1-4.54.41c-2.56,0-3.83-1.05-3.83-3.16s1.45-3.07,4.36-3.07a14.82,14.82,0,0,1,2.76.27q2.13.18,2.67.18c2.08,0,3.35-.82,3.83-2.45S335.27,344.39,335.27,337.57Z" transform="translate(-106.22 -229.28)"/><path class="cls-5" d="M389.2,437.39l-.26-25.81q-.09-4.53-.94-6.05c-.56-1-1.67-1.51-3.33-1.51a21,21,0,0,0-2.59.22,20.75,20.75,0,0,1-2.58.22c-2.31,0-3.47-1-3.47-3.11s1.1-3.12,3.29-3.12c.72,0,1.83.08,3.34.23s2.69.22,3.52.22q2.85,0,4.71-.18,2.76-.27,3.39-.27c1.3,0,2.1.39,2.4,1.16a7.46,7.46,0,0,1,.36,2.76c0,.18,0,.89-.09,2.14q-.45,9.52-.45,17.26v10.06q0,2.76.09,7.39c.12,3.73.18,6.2.18,7.38.06,4.1,1.42,6.14,4.09,6.14a28.06,28.06,0,0,0,2.94-.22,27.7,27.7,0,0,1,2.94-.22q4.27,0,4.27,3.11t-3.92,3.12a21.46,21.46,0,0,1-2.85-.18,95.64,95.64,0,0,0-11.39-1,75.69,75.69,0,0,0-9.61.75,42.37,42.37,0,0,1-4.54.41q-3.82,0-3.82-3.16t4.36-3.07a14.63,14.63,0,0,1,2.75.27c1.43.12,2.32.17,2.68.17,2.07,0,3.35-.81,3.82-2.44S389.2,444.22,389.2,437.39Z" transform="translate(-106.22 -229.28)"/><path class="cls-5" d="M437.06,437.39l-.27-25.81c-.05-3-.37-5-.93-6.05s-1.68-1.51-3.34-1.51a21,21,0,0,0-2.58.22,21,21,0,0,1-2.58.22c-2.31,0-3.47-1-3.47-3.11s1.1-3.12,3.29-3.12c.71,0,1.83.08,3.34.23s2.68.22,3.52.22c1.89,0,3.47-.06,4.71-.18,1.84-.18,3-.27,3.38-.27,1.31,0,2.11.39,2.41,1.16a7.73,7.73,0,0,1,.35,2.76c0,.18,0,.89-.09,2.14q-.44,9.52-.44,17.26v10.06q0,2.76.09,7.39c.12,3.73.18,6.2.18,7.38.06,4.1,1.42,6.14,4.09,6.14a28.06,28.06,0,0,0,2.94-.22,27.73,27.73,0,0,1,2.93-.22q4.28,0,4.28,3.11T455,458.31a21.35,21.35,0,0,1-2.85-.18,95.64,95.64,0,0,0-11.39-1,75.69,75.69,0,0,0-9.61.75,42.37,42.37,0,0,1-4.54.41q-3.82,0-3.83-3.16c0-2,1.46-3.07,4.36-3.07a14.82,14.82,0,0,1,2.76.27c1.43.12,2.32.17,2.67.17,2.08,0,3.35-.81,3.83-2.44S437.06,444.22,437.06,437.39Z" transform="translate(-106.22 -229.28)"/><path class="cls-5" d="M485.91,437.39l-.26-25.81q-.09-4.53-.94-6.05c-.56-1-1.67-1.51-3.34-1.51a21,21,0,0,0-2.58.22,20.9,20.9,0,0,1-2.58.22c-2.31,0-3.47-1-3.47-3.11s1.1-3.12,3.29-3.12c.72,0,1.83.08,3.34.23s2.69.22,3.52.22q2.85,0,4.71-.18,2.76-.27,3.39-.27c1.3,0,2.1.39,2.4,1.16a7.5,7.5,0,0,1,.35,2.76c0,.18,0,.89-.08,2.14q-.45,9.52-.45,17.26v10.06q0,2.76.09,7.39c.12,3.73.18,6.2.18,7.38.06,4.1,1.42,6.14,4.09,6.14a28.06,28.06,0,0,0,2.94-.22,27.7,27.7,0,0,1,2.94-.22c2.84,0,4.27,1,4.27,3.11s-1.31,3.12-3.92,3.12a21.35,21.35,0,0,1-2.85-.18,95.64,95.64,0,0,0-11.39-1,75.69,75.69,0,0,0-9.61.75,42.37,42.37,0,0,1-4.54.41q-3.82,0-3.83-3.16t4.37-3.07a14.71,14.71,0,0,1,2.75.27c1.43.12,2.32.17,2.67.17q3.12,0,3.83-2.44T485.91,437.39Z" transform="translate(-106.22 -229.28)"/><path class="cls-5" d="M390.3,527.84,390,502q-.09-4.54-.94-6.06c-.56-1-1.67-1.51-3.33-1.51a22.91,22.91,0,0,0-2.58.22,21.5,21.5,0,0,1-2.58.23q-3.48,0-3.48-3.12t3.3-3.11c.71,0,1.82.07,3.33.22s2.69.22,3.52.22c1.9,0,3.47-.06,4.72-.18,1.84-.17,3-.26,3.38-.26,1.3,0,2.1.38,2.4,1.15a7.46,7.46,0,0,1,.36,2.76c0,.18,0,.89-.09,2.14q-.45,9.52-.45,17.26v10.06q0,2.76.09,7.39.18,5.61.18,7.39Q398,543,402,543a28.37,28.37,0,0,0,2.93-.23c1.31-.14,2.29-.22,2.94-.22q4.28,0,4.27,3.12t-3.91,3.11a21.35,21.35,0,0,1-2.85-.18,95.81,95.81,0,0,0-11.39-1,75.69,75.69,0,0,0-9.62.75,42.16,42.16,0,0,1-4.54.41q-3.82,0-3.82-3.16t4.36-3.07a14.82,14.82,0,0,1,2.76.27q2.13.18,2.67.18c2.07,0,3.35-.82,3.82-2.45S390.3,534.66,390.3,527.84Z" transform="translate(-106.22 -229.28)"/><path class="cls-5" d="M438.06,527.84,437.79,502c-.05-3-.37-5-.93-6.06s-1.68-1.51-3.34-1.51a23.29,23.29,0,0,0-2.58.22,21.5,21.5,0,0,1-2.58.23q-3.47,0-3.47-3.12t3.29-3.11c.71,0,1.83.07,3.34.22s2.68.22,3.52.22c1.89,0,3.47-.06,4.71-.18,1.84-.17,3-.26,3.38-.26,1.31,0,2.11.38,2.41,1.15a7.73,7.73,0,0,1,.35,2.76c0,.18,0,.89-.09,2.14q-.44,9.52-.44,17.26v10.06q0,2.76.09,7.39.18,5.61.18,7.39.09,6.13,4.09,6.14a28.72,28.72,0,0,0,2.94-.23c1.3-.14,2.28-.22,2.93-.22q4.28,0,4.28,3.12T456,548.75a21.35,21.35,0,0,1-2.85-.18,95.64,95.64,0,0,0-11.39-1,75.69,75.69,0,0,0-9.61.75,42.37,42.37,0,0,1-4.54.41q-3.82,0-3.83-3.16c0-2.05,1.46-3.07,4.36-3.07a14.82,14.82,0,0,1,2.76.27q2.14.18,2.67.18c2.08,0,3.35-.82,3.83-2.45S438.06,534.66,438.06,527.84Z" transform="translate(-106.22 -229.28)"/><rect class="cls-6" x="272.59" y="74.44" width="27.51" height="50.02" rx="8.39" ry="8.39"/><rect class="cls-6" x="320.52" y="74.44" width="27.51" height="50.02" rx="8.39" ry="8.39"/><rect class="cls-6" x="218.93" y="172.83" width="27.51" height="50.02" rx="8.39" ry="8.39"/><rect class="cls-6" x="218.43" y="265.58" width="27.51" height="50.02" rx="8.39" ry="8.39"/><path class="cls-3" d="M380.62,605.63s5.51-3.17,2.05-7.38c-3-3.69-7-1.32-8-.66" transform="translate(-106.22 -229.28)"/></svg>