<svg id="Livello_1" data-name="Livello 1" xmlns="http://www.w3.org/2000/svg" viewBox="0 0 512.16 500.69"><defs><style>.cls-1,.cls-2{fill:none;stroke:#000;stroke-miterlimit:10;}.cls-1{stroke-width:10px;}.cls-2{stroke-width:13px;}</style></defs><title>loghi_settori_elettronica 2</title><path d="M392.23,286.49H223.81L180.2,329.6V503l43.61,42.11H398.75L437.35,501V329.6Zm14.54,194.64-29,33.43H246.1l-32.81-31.91V351.23l32.81-32.66H372.82l33.95,32.66Z" transform="translate(-50.4 -171.81)"/><polyline class="cls-1" points="217 182.35 284.17 182.35 303.72 201.4 356.35 201.4"/><polyline class="cls-1" points="162.9 285.61 223.05 285.61 240.59 306.16 307.26 306.16"/><polyline class="cls-1" points="154.01 40.09 154.01 62.09 188.51 94.09 188.51 115.59"/><line class="cls-1" x1="224.01" y1="42.09" x2="226.01" y2="115.59"/><path class="cls-1" d="M342.91,284.4" transform="translate(-50.4 -171.81)"/><line class="cls-1" x1="292.51" y1="115.59" x2="292.51" y2="74.59"/><polyline class="cls-1" points="363.02 42.09 363.02 77.59 292.51 97.09"/><polyline class="cls-1" points="42.97 353.68 64.96 354.15 99.69 320.38 130.19 320.95"/><line class="cls-1" x1="44.46" y1="283.69" x2="129.99" y2="283.45"/><line class="cls-1" x1="130.41" y1="216.97" x2="80.42" y2="215.94"/><polyline class="cls-1" points="49.43 144.76 84.92 145.52 106.91 216.51"/><polyline class="cls-1" points="363.81 456.92 363.81 434.92 329.31 400.92 329.31 373.42"/><line class="cls-1" x1="293.81" y1="456.92" x2="291.81" y2="372.42"/><line class="cls-1" x1="225.31" y1="373.42" x2="225.31" y2="422.42"/><polyline class="cls-1" points="154.8 454.92 154.8 419.42 225.31 395.92"/><polyline class="cls-1" points="471.55 144.43 449.65 143.96 415.07 177.64 386.69 177.08"/><line class="cls-1" x1="470.06" y1="214.23" x2="386.89" y2="214.47"/><line class="cls-1" x1="386.47" y1="280.79" x2="434.25" y2="281.81"/><polyline class="cls-1" points="465.11 352.8 429.77 352.05 407.87 281.25"/><ellipse class="cls-2" cx="539.78" cy="386.04" rx="16.3" ry="16.27" transform="translate(91.91 745.65) rotate(-88.78)"/><ellipse class="cls-2" cx="531.43" cy="522.72" rx="16.3" ry="16.27" transform="translate(-52.91 871.06) rotate(-88.78)"/><ellipse class="cls-2" cx="536.79" cy="317.57" rx="16.3" ry="16.27" transform="translate(157.43 675.65) rotate(-88.78)"/><ellipse class="cls-2" cx="500.32" cy="454.85" rx="16.3" ry="16.27" transform="translate(-15.5 773.54) rotate(-88.78)"/><ellipse class="cls-2" cx="110.08" cy="386.41" rx="16.72" ry="16.7" transform="translate(-328.99 316.41) rotate(-88.78)"/><ellipse class="cls-2" cx="81.51" cy="524.65" rx="16.72" ry="16.7" transform="translate(-495.16 423.13) rotate(-88.78)"/><ellipse class="cls-2" cx="87.01" cy="314.16" rx="16.72" ry="16.7" transform="translate(-279.33 222.63) rotate(-88.78)"/><ellipse class="cls-2" cx="73.59" cy="455.01" rx="16.72" ry="16.7" transform="translate(-433.28 347.07) rotate(-88.78)"/><ellipse class="cls-2" cx="275.38" cy="194.58" rx="16.3" ry="16.27" transform="matrix(1, -0.01, 0.01, 1, -52.36, -169)"/><ellipse class="cls-2" cx="412.25" cy="198.62" rx="16.3" ry="16.27" transform="translate(-52.39 -167.61) rotate(-0.58)"/><ellipse class="cls-2" cx="207.03" cy="199.73" rx="16.3" ry="16.27" transform="translate(-52.42 -169.69) rotate(-0.58)"/><ellipse class="cls-2" cx="345.4" cy="231.85" rx="16.3" ry="16.27" transform="translate(-52.74 -168.29) rotate(-0.58)"/><ellipse class="cls-2" cx="342.88" cy="649.73" rx="16.3" ry="16.27" transform="translate(-56.98 -168.29) rotate(-0.58)"/><ellipse class="cls-2" cx="206.01" cy="645.68" rx="16.3" ry="16.27" transform="translate(-56.95 -169.68) rotate(-0.58)"/><ellipse class="cls-2" cx="411.23" cy="644.58" rx="16.3" ry="16.27" transform="translate(-56.93 -167.59) rotate(-0.58)"/><ellipse class="cls-2" cx="272.86" cy="612.46" rx="16.3" ry="16.27" transform="translate(-56.61 -169) rotate(-0.58)"/></svg>